<svg width="400" height="300" viewBox="0 0 400 300" xmlns="http://www.w3.org/2000/svg">
  <defs>
    <linearGradient id="powerGradient" x1="0%" y1="0%" x2="100%" y2="100%">
      <stop offset="0%" style="stop-color:#ff6b35;stop-opacity:1" />
      <stop offset="100%" style="stop-color:#f39c12;stop-opacity:1" />
    </linearGradient>
    <linearGradient id="lightningGradient" x1="0%" y1="0%" x2="100%" y2="100%">
      <stop offset="0%" style="stop-color:#f1c40f;stop-opacity:1" />
      <stop offset="100%" style="stop-color:#f39c12;stop-opacity:1" />
    </linearGradient>
  </defs>
  
  <!-- Background -->
  <rect width="400" height="300" fill="#f8f9fa"/>
  
  <!-- Generator body -->
  <rect x="80" y="140" width="240" height="100" fill="url(#powerGradient)" rx="15"/>
  
  <!-- Control panel -->
  <rect x="260" y="160" width="40" height="60" fill="#2c3e50" rx="5"/>
  
  <!-- Control buttons -->
  <circle cx="270" cy="175" r="4" fill="#27ae60"/>
  <circle cx="290" cy="175" r="4" fill="#e74c3c"/>
  <circle cx="280" cy="195" r="6" fill="#3498db"/>
  
  <!-- Vents -->
  <rect x="100" y="160" width="120" height="4" fill="#34495e" rx="2"/>
  <rect x="100" y="170" width="120" height="4" fill="#34495e" rx="2"/>
  <rect x="100" y="180" width="120" height="4" fill="#34495e" rx="2"/>
  <rect x="100" y="190" width="120" height="4" fill="#34495e" rx="2"/>
  
  <!-- Lightning bolt -->
  <path d="M 150 100 L 130 120 L 140 120 L 125 150 L 145 130 L 135 130 Z" fill="url(#lightningGradient)"/>
  
  <!-- KAMSEN branding -->
  <text x="200" y="210" text-anchor="middle" font-family="Arial, sans-serif" font-size="18" font-weight="bold" fill="white">KAMSEN</text>
  <text x="200" y="225" text-anchor="middle" font-family="Arial, sans-serif" font-size="10" fill="white">POWER</text>
  
  <!-- Wheels -->
  <circle cx="120" cy="260" r="18" fill="#2c3e50"/>
  <circle cx="280" cy="260" r="18" fill="#2c3e50"/>
</svg>