<svg width="400" height="300" viewBox="0 0 400 300" xmlns="http://www.w3.org/2000/svg">
  <defs>
    <linearGradient id="specialGradient" x1="0%" y1="0%" x2="100%" y2="100%">
      <stop offset="0%" style="stop-color:#ff6b35;stop-opacity:1" />
      <stop offset="100%" style="stop-color:#f39c12;stop-opacity:1" />
    </linearGradient>
  </defs>
  
  <!-- Background -->
  <rect width="400" height="300" fill="#f8f9fa"/>
  
  <!-- Speaker bases -->
  <rect x="100" y="140" width="60" height="80" fill="url(#specialGradient)" rx="8"/>
  <rect x="240" y="140" width="60" height="80" fill="url(#specialGradient)" rx="8"/>
  
  <!-- Speaker cones -->
  <circle cx="130" cy="160" r="20" fill="#2c3e50"/>
  <circle cx="130" cy="200" r="15" fill="#2c3e50"/>
  <circle cx="270" cy="160" r="20" fill="#2c3e50"/>
  <circle cx="270" cy="200" r="15" fill="#2c3e50"/>
  
  <!-- Speaker grilles -->
  <circle cx="130" cy="160" r="15" fill="none" stroke="#34495e" stroke-width="2"/>
  <circle cx="130" cy="200" r="10" fill="none" stroke="#34495e" stroke-width="2"/>
  <circle cx="270" cy="160" r="15" fill="none" stroke="#34495e" stroke-width="2"/>
  <circle cx="270" cy="200" r="10" fill="none" stroke="#34495e" stroke-width="2"/>
  
  <!-- Sound mixing console -->
  <rect x="160" y="160" width="80" height="40" fill="#2c3e50" rx="5"/>
  
  <!-- Console controls -->
  <circle cx="175" cy="175" r="3" fill="#f1c40f"/>
  <circle cx="190" cy="175" r="3" fill="#f1c40f"/>
  <circle cx="205" cy="175" r="3" fill="#f1c40f"/>
  <circle cx="220" cy="175" r="3" fill="#f1c40f"/>
  
  <!-- Sliders -->
  <rect x="172" y="185" width="2" height="10" fill="#ecf0f1"/>
  <rect x="187" y="185" width="2" height="10" fill="#ecf0f1"/>
  <rect x="202" y="185" width="2" height="10" fill="#ecf0f1"/>
  <rect x="217" y="185" width="2" height="10" fill="#ecf0f1"/>
  
  <!-- Sound waves -->
  <path d="M 130 140 Q 150 120 170 140" stroke="#f39c12" stroke-width="2" fill="none" opacity="0.6"/>
  <path d="M 270 140 Q 250 120 230 140" stroke="#f39c12" stroke-width="2" fill="none" opacity="0.6"/>
  
  <!-- AYWA branding -->
  <text x="200" y="250" text-anchor="middle" font-family="Arial, sans-serif" font-size="16" font-weight="bold" fill="#ff6b35">AYWA</text>
  <text x="200" y="265" text-anchor="middle" font-family="Arial, sans-serif" font-size="9" fill="#f39c12">SOUND</text>
</svg>