<svg width="400" height="300" viewBox="0 0 400 300" xmlns="http://www.w3.org/2000/svg">
  <defs>
    <linearGradient id="toolGradient" x1="0%" y1="0%" x2="100%" y2="100%">
      <stop offset="0%" style="stop-color:#ff6b35;stop-opacity:1" />
      <stop offset="100%" style="stop-color:#f39c12;stop-opacity:1" />
    </linearGradient>
  </defs>
  
  <!-- Background -->
  <rect width="400" height="300" fill="#f8f9fa"/>
  
  <!-- Drill press base -->
  <rect x="160" y="200" width="80" height="60" fill="url(#toolGradient)" rx="8"/>
  
  <!-- Drill press column -->
  <rect x="190" y="120" width="20" height="80" fill="#2c3e50" rx="10"/>
  
  <!-- Drill head -->
  <rect x="170" y="120" width="60" height="40" fill="url(#toolGradient)" rx="5"/>
  
  <!-- Drill bit -->
  <rect x="198" y="100" width="4" height="60" fill="#34495e"/>
  <circle cx="200" cy="95" r="3" fill="#34495e"/>
  
  <!-- Motor housing -->
  <rect x="175" y="80" width="50" height="30" fill="#34495e" rx="5"/>
  
  <!-- Control handle -->
  <rect x="230" y="130" width="20" height="8" fill="#2c3e50" rx="4"/>
  
  <!-- Work table -->
  <rect x="150" y="180" width="100" height="8" fill="#34495e" rx="4"/>
  
  <!-- Table adjustment -->
  <rect x="145" y="185" width="10" height="20" fill="#2c3e50"/>
  <rect x="245" y="185" width="10" height="20" fill="#2c3e50"/>
  
  <!-- Safety elements -->
  <circle cx="160" cy="100" r="8" fill="#e74c3c" opacity="0.8"/>
  <text x="160" y="105" text-anchor="middle" font-family="Arial, sans-serif" font-size="10" font-weight="bold" fill="white">!</text>
  
  <!-- KAMSEN branding -->
  <text x="200" y="240" text-anchor="middle" font-family="Arial, sans-serif" font-size="16" font-weight="bold" fill="white">KAMSEN</text>
  <text x="200" y="253" text-anchor="middle" font-family="Arial, sans-serif" font-size="9" fill="white">TOOLS</text>
  
  <!-- Work surface indicators -->
  <circle cx="180" cy="183" r="2" fill="#f39c12" opacity="0.6"/>
  <circle cx="220" cy="183" r="2" fill="#f39c12" opacity="0.6"/>
</svg>