<svg width="400" height="300" viewBox="0 0 400 300" fill="none" xmlns="http://www.w3.org/2000/svg">
  <!-- Motopompe thermique -->
  <!-- Châssis/base -->
  <rect x="100" y="200" width="200" height="40" rx="8" fill="#374151" stroke="#f97316" stroke-width="2"/>
  
  <!-- Moteur thermique -->
  <rect x="120" y="140" width="80" height="60" rx="6" fill="#1e3a8a" stroke="#f97316" stroke-width="2"/>
  
  <!-- Culasse -->
  <rect x="130" y="120" width="60" height="20" rx="4" fill="#6b7280"/>
  
  <!-- Ailettes de refroidissement -->
  <rect x="125" y="125" width="2" height="15" fill="#9ca3af"/>
  <rect x="130" y="125" width="2" height="15" fill="#9ca3af"/>
  <rect x="135" y="125" width="2" height="15" fill="#9ca3af"/>
  <rect x="140" y="125" width="2" height="15" fill="#9ca3af"/>
  <rect x="145" y="125" width="2" height="15" fill="#9ca3af"/>
  <rect x="150" y="125" width="2" height="15" fill="#9ca3af"/>
  <rect x="155" y="125" width="2" height="15" fill="#9ca3af"/>
  <rect x="160" y="125" width="2" height="15" fill="#9ca3af"/>
  <rect x="165" y="125" width="2" height="15" fill="#9ca3af"/>
  <rect x="170" y="125" width="2" height="15" fill="#9ca3af"/>
  <rect x="175" y="125" width="2" height="15" fill="#9ca3af"/>
  <rect x="180" y="125" width="2" height="15" fill="#9ca3af"/>
  <rect x="185" y="125" width="2" height="15" fill="#9ca3af"/>
  
  <!-- Corps de pompe -->
  <circle cx="250" cy="170" r="30" fill="#f97316" stroke="#1e3a8a" stroke-width="3"/>
  <circle cx="250" cy="170" r="20" fill="#fed7aa"/>
  
  <!-- Turbine (visible) -->
  <path d="M240 170 L250 160 L260 170 L250 180 Z" fill="#1e3a8a"/>
  <path d="M250 160 L260 170 L250 180 L240 170 Z" fill="#1e3a8a"/>
  
  <!-- Aspiration -->
  <rect x="210" y="165" width="20" height="10" fill="#6b7280"/>
  <circle cx="200" cy="170" r="8" fill="#1e3a8a" stroke="#f97316" stroke-width="2"/>
  
  <!-- Refoulement -->
  <rect x="280" y="160" width="30" height="10" fill="#6b7280"/>
  <rect x="310" y="155" width="10" height="20" fill="#6b7280"/>
  
  <!-- Réservoir carburant -->
  <rect x="140" y="110" width="40" height="20" rx="4" fill="#dc2626"/>
  <circle cx="175" cy="115" r="3" fill="#374151"/>
  
  <!-- Lanceur -->
  <rect x="180" y="150" width="15" height="30" rx="3" fill="#374151"/>
  <rect x="185" y="145" width="5" height="10" rx="2" fill="#f97316"/>
  
  <!-- Poignée de transport -->
  <path d="M110 140 Q105 130 110 120 Q160 120 160 120 Q165 130 160 140" 
        stroke="#374151" stroke-width="4" fill="none"/>
  
  <!-- Vibrations (effet visuel) -->
  <path d="M90 160 Q95 155 100 160" stroke="#f97316" stroke-width="2" fill="none"/>
  <path d="M90 170 Q95 165 100 170" stroke="#f97316" stroke-width="2" fill="none"/>
  <path d="M90 180 Q95 175 100 180" stroke="#f97316" stroke-width="2" fill="none"/>
  
  <!-- Logo Aywa -->
  <rect x="20" y="20" width="60" height="30" rx="4" fill="#1e2a4a"/>
  <text x="50" y="40" text-anchor="middle" fill="#f97316" font-family="Arial, sans-serif" font-size="16" font-weight="bold">KAMSEN</text>
</svg>