<svg width="400" height="300" viewBox="0 0 400 300" fill="none" xmlns="http://www.w3.org/2000/svg">
  <!-- Pick-up 4x4 double cabine -->
  <!-- Châssis -->
  <rect x="60" y="180" width="280" height="20" rx="4" fill="#374151"/>
  
  <!-- Cabine double -->
  <rect x="60" y="120" width="180" height="80" rx="8" fill="#1e3a8a" stroke="#f97316" stroke-width="2"/>
  
  <!-- Vitres avant -->
  <rect x="70" y="130" width="40" height="25" rx="2" fill="#e5e7eb" stroke="#f97316" stroke-width="1"/>
  <rect x="115" y="130" width="40" height="25" rx="2" fill="#e5e7eb" stroke="#f97316" stroke-width="1"/>
  
  <!-- Vitres latérales -->
  <rect x="70" y="160" width="35" height="20" rx="2" fill="#e5e7eb" stroke="#f97316" stroke-width="1"/>
  <rect x="120" y="160" width="35" height="20" rx="2" fill="#e5e7eb" stroke="#f97316" stroke-width="1"/>
  <rect x="165" y="160" width="35" height="20" rx="2" fill="#e5e7eb" stroke="#f97316" stroke-width="1"/>
  <rect x="205" y="160" width="30" height="20" rx="2" fill="#e5e7eb" stroke="#f97316" stroke-width="1"/>
  
  <!-- Capot -->
  <rect x="30" y="140" width="30" height="40" rx="6" fill="#374151" stroke="#f97316" stroke-width="2"/>
  
  <!-- Benne arrière -->
  <rect x="240" y="130" width="100" height="50" fill="#6b7280" stroke="#f97316" stroke-width="2"/>
  <rect x="245" y="135" width="90" height="5" fill="#374151"/>
  <rect x="245" y="145" width="90" height="5" fill="#374151"/>
  <rect x="245" y="155" width="90" height="5" fill="#374151"/>
  <rect x="245" y="165" width="90" height="5" fill="#374151"/>
  
  <!-- Ridelles -->
  <rect x="240" y="125" width="100" height="8" fill="#f97316"/>
  
  <!-- Roues 4x4 (plus larges) -->
  <circle cx="100" cy="220" r="25" fill="#374151" stroke="#f97316" stroke-width="2"/>
  <circle cx="100" cy="220" r="18" fill="#1f2937"/>
  <circle cx="100" cy="220" r="8" fill="#9ca3af"/>
  <!-- Sculpture des pneus -->
  <rect x="95" y="205" width="10" height="3" fill="#374151"/>
  <rect x="95" y="215" width="10" height="3" fill="#374151"/>
  <rect x="95" y="225" width="10" height="3" fill="#374151"/>
  <rect x="95" y="235" width="10" height="3" fill="#374151"/>
  
  <circle cx="280" cy="220" r="25" fill="#374151" stroke="#f97316" stroke-width="2"/>
  <circle cx="280" cy="220" r="18" fill="#1f2937"/>
  <circle cx="280" cy="220" r="8" fill="#9ca3af"/>
  <!-- Sculpture des pneus -->
  <rect x="275" y="205" width="10" height="3" fill="#374151"/>
  <rect x="275" y="215" width="10" height="3" fill="#374151"/>
  <rect x="275" y="225" width="10" height="3" fill="#374151"/>
  <rect x="275" y="235" width="10" height="3" fill="#374151"/>
  
  <!-- Phares -->
  <circle cx="25" cy="150" r="6" fill="#fef3c7" stroke="#f59e0b" stroke-width="1"/>
  <circle cx="25" cy="170" r="6" fill="#fef3c7" stroke="#f59e0b" stroke-width="1"/>
  
  <!-- Feux arrière -->
  <rect x="345" y="150" width="6" height="12" rx="2" fill="#dc2626"/>
  <rect x="345" y="170" width="6" height="8" rx="2" fill="#fbbf24"/>
  
  <!-- Antenne -->
  <rect x="200" y="100" width="2" height="20" fill="#374151"/>
  <circle cx="201" cy="95" r="2" fill="#374151"/>
  
  <!-- Rétroviseurs -->
  <circle cx="55" cy="145" r="3" fill="#374151" stroke="#f97316" stroke-width="1"/>
  <circle cx="245" cy="145" r="3" fill="#374151" stroke="#f97316" stroke-width="1"/>
  
  <!-- Inscription 4x4 -->
  <rect x="180" y="110" width="40" height="15" rx="3" fill="#f97316"/>
  <text x="200" y="122" text-anchor="middle" fill="#1e3a8a" font-family="Arial, sans-serif" font-size="12" font-weight="bold">4x4</text>
  
  <!-- Logo Aywa -->
  <rect x="320" y="20" width="60" height="30" rx="4" fill="#1e2a4a"/>
  <text x="350" y="40" text-anchor="middle" fill="#f97316" font-family="Arial, sans-serif" font-size="16" font-weight="bold">AYWA</text>
</svg>