<svg width="400" height="300" viewBox="0 0 400 300" xmlns="http://www.w3.org/2000/svg">
  <defs>
    <linearGradient id="pumpGradient" x1="0%" y1="0%" x2="100%" y2="100%">
      <stop offset="0%" style="stop-color:#ff6b35;stop-opacity:1" />
      <stop offset="100%" style="stop-color:#f39c12;stop-opacity:1" />
    </linearGradient>
  </defs>
  
  <!-- Background -->
  <rect width="400" height="300" fill="#f8f9fa"/>
  
  <!-- Pump body -->
  <ellipse cx="200" cy="180" rx="80" ry="50" fill="url(#pumpGradient)"/>
  
  <!-- Inlet pipe -->
  <rect x="90" y="175" width="30" height="10" fill="#2c3e50" rx="5"/>
  
  <!-- Outlet pipe -->
  <rect x="280" y="175" width="30" height="10" fill="#2c3e50" rx="5"/>
  
  <!-- Water drops -->
  <circle cx="340" cy="160" r="8" fill="#3498db" opacity="0.7"/>
  <circle cx="355" cy="175" r="6" fill="#3498db" opacity="0.7"/>
  <circle cx="365" cy="155" r="5" fill="#3498db" opacity="0.7"/>
  
  <!-- Engine -->
  <rect x="170" y="120" width="60" height="40" fill="#34495e" rx="5"/>
  
  <!-- Motor vents -->
  <rect x="175" y="130" width="50" height="2" fill="#2c3e50"/>
  <rect x="175" y="135" width="50" height="2" fill="#2c3e50"/>
  <rect x="175" y="140" width="50" height="2" fill="#2c3e50"/>
  <rect x="175" y="145" width="50" height="2" fill="#2c3e50"/>
  
  <!-- Base -->
  <rect x="140" y="220" width="120" height="15" fill="#2c3e50" rx="7"/>
  
  <!-- KAMSEN branding -->
  <text x="200" y="195" text-anchor="middle" font-family="Arial, sans-serif" font-size="16" font-weight="bold" fill="white">KAMSEN</text>
  <text x="200" y="208" text-anchor="middle" font-family="Arial, sans-serif" font-size="9" fill="white">PUMP</text>
  
  <!-- Water flow indicator -->
  <path d="M 320 180 L 335 175 L 335 185 Z" fill="#3498db"/>
</svg>