<svg width="400" height="300" viewBox="0 0 400 300" fill="none" xmlns="http://www.w3.org/2000/svg">
  <!-- Pulvérisateur motorisé -->
  <!-- Châssis principal -->
  <rect x="80" y="180" width="240" height="30" rx="6" fill="#374151" stroke="#f97316" stroke-width="2"/>
  
  <!-- Réservoir principal -->
  <ellipse cx="200" cy="140" rx="80" ry="40" fill="#1e3a8a" stroke="#f97316" stroke-width="3"/>
  <ellipse cx="200" cy="135" rx="70" ry="35" fill="#3b82f6"/>
  
  <!-- Niveau de liquide -->
  <ellipse cx="200" cy="140" rx="65" ry="25" fill="#22d3ee"/>
  
  <!-- Couvercle -->
  <ellipse cx="200" cy="100" rx="15" ry="8" fill="#6b7280" stroke="#f97316" stroke-width="2"/>
  <rect x="195" y="95" width="10" height="8" rx="2" fill="#f97316"/>
  
  <!-- Moteur -->
  <rect x="300" y="150" width="50" height="40" rx="6" fill="#dc2626" stroke="#f97316" stroke-width="2"/>
  
  <!-- Ailettes moteur -->
  <rect x="305" y="145" width="2" height="15" fill="#9ca3af"/>
  <rect x="310" y="145" width="2" height="15" fill="#9ca3af"/>
  <rect x="315" y="145" width="2" height="15" fill="#9ca3af"/>
  <rect x="320" y="145" width="2" height="15" fill="#9ca3af"/>
  <rect x="325" y="145" width="2" height="15" fill="#9ca3af"/>
  <rect x="330" y="145" width="2" height="15" fill="#9ca3af"/>
  <rect x="335" y="145" width="2" height="15" fill="#9ca3af"/>
  <rect x="340" y="145" width="2" height="15" fill="#9ca3af"/>
  
  <!-- Pompe -->
  <circle cx="270" cy="170" r="12" fill="#f97316" stroke="#1e3a8a" stroke-width="2"/>
  
  <!-- Tuyau haute pression -->
  <path d="M250 170 Q240 160 230 170 Q220 180 210 170" 
        stroke="#374151" stroke-width="4" fill="none"/>
  
  <!-- Lance de pulvérisation -->
  <rect x="40" y="165" width="60" height="8" rx="4" fill="#6b7280"/>
  <rect x="30" y="160" width="15" height="18" rx="3" fill="#1e3a8a"/>
  
  <!-- Buse -->
  <circle cx="25" cy="169" r="4" fill="#f97316"/>
  <circle cx="25" cy="169" r="2" fill="#374151"/>
  
  <!-- Jet de pulvérisation -->
  <path d="M20 169 L5 160" stroke="#22d3ee" stroke-width="2" opacity="0.6"/>
  <path d="M20 169 L5 169" stroke="#22d3ee" stroke-width="2" opacity="0.6"/>
  <path d="M20 169 L5 178" stroke="#22d3ee" stroke-width="2" opacity="0.6"/>
  <circle cx="8" cy="165" r="1" fill="#22d3ee" opacity="0.8"/>
  <circle cx="10" cy="173" r="1" fill="#22d3ee" opacity="0.8"/>
  <circle cx="6" cy="169" r="1" fill="#22d3ee" opacity="0.8"/>
  
  <!-- Roues -->
  <circle cx="120" cy="230" r="20" fill="#374151" stroke="#f97316" stroke-width="2"/>
  <circle cx="120" cy="230" r="12" fill="#9ca3af"/>
  
  <circle cx="280" cy="230" r="20" fill="#374151" stroke="#f97316" stroke-width="2"/>
  <circle cx="280" cy="230" r="12" fill="#9ca3af"/>
  
  <!-- Manomètre -->
  <circle cx="180" cy="120" r="8" fill="#e5e7eb" stroke="#374151" stroke-width="1"/>
  <path d="M175 120 L180 115 L183 122" stroke="#dc2626" stroke-width="2" fill="none"/>
  
  <!-- Logo Aywa -->
  <rect x="320" y="20" width="60" height="30" rx="4" fill="#1e2a4a"/>
  <text x="350" y="40" text-anchor="middle" fill="#f97316" font-family="Arial, sans-serif" font-size="16" font-weight="bold">AYWA</text>
</svg>