<svg width="400" height="300" viewBox="0 0 400 300" fill="none" xmlns="http://www.w3.org/2000/svg">
  <!-- Tracteur -->
  <!-- Corps principal -->
  <rect x="120" y="140" width="180" height="80" rx="8" fill="#1e3a8a" stroke="#f97316" stroke-width="2"/>
  
  <!-- Cabine -->
  <rect x="200" y="100" width="100" height="60" rx="8" fill="#1e3a8a" stroke="#f97316" stroke-width="2"/>
  <rect x="210" y="110" width="35" height="25" rx="2" fill="#e5e7eb" stroke="#f97316" stroke-width="1"/>
  <rect x="255" y="110" width="35" height="25" rx="2" fill="#e5e7eb" stroke="#f97316" stroke-width="1"/>
  
  <!-- Capot moteur -->
  <rect x="120" y="120" width="80" height="40" rx="6" fill="#374151" stroke="#f97316" stroke-width="2"/>
  <rect x="130" y="130" width="15" height="8" fill="#6b7280"/>
  <rect x="150" y="130" width="15" height="8" fill="#6b7280"/>
  <rect x="170" y="130" width="15" height="8" fill="#6b7280"/>
  
  <!-- Roues arrière (grandes) -->
  <circle cx="150" cy="240" r="45" fill="#374151" stroke="#f97316" stroke-width="3"/>
  <circle cx="150" cy="240" r="35" fill="#1f2937" stroke="#f97316" stroke-width="2"/>
  <circle cx="150" cy="240" r="15" fill="#9ca3af"/>
  
  <circle cx="270" cy="240" r="45" fill="#374151" stroke="#f97316" stroke-width="3"/>
  <circle cx="270" cy="240" r="35" fill="#1f2937" stroke="#f97316" stroke-width="2"/>
  <circle cx="270" cy="240" r="15" fill="#9ca3af"/>
  
  <!-- Roues avant (petites) -->
  <circle cx="80" cy="200" r="25" fill="#374151" stroke="#f97316" stroke-width="2"/>
  <circle cx="80" cy="200" r="18" fill="#1f2937"/>
  <circle cx="80" cy="200" r="8" fill="#9ca3af"/>
  
  <!-- Échappement -->
  <rect x="190" y="80" width="8" height="30" fill="#374151"/>
  <ellipse cx="194" cy="75" rx="6" ry="3" fill="#6b7280"/>
  
  <!-- Relevage hydraulique -->
  <rect x="300" y="160" width="40" height="8" fill="#f97316"/>
  <rect x="335" y="150" width="8" height="28" fill="#f97316"/>
  
  <!-- Logo Aywa -->
  <rect x="20" y="20" width="60" height="30" rx="4" fill="#1e2a4a"/>
  <text x="50" y="40" text-anchor="middle" fill="#f97316" font-family="Arial, sans-serif" font-size="16" font-weight="bold">AYWA</text>
</svg>